<?xml version="1.0" standalone="no"?>
<!DOCTYPE svg PUBLIC "-//W3C//DTD SVG 20010904//EN"
 "http://www.w3.org/TR/2001/REC-SVG-20010904/DTD/svg10.dtd">
<svg version="1.0" xmlns="http://www.w3.org/2000/svg"
 width="1024.000000pt" height="1024.000000pt" viewBox="0 0 1024.000000 1024.000000"
 preserveAspectRatio="xMidYMid meet">
<metadata>
Created by potrace 1.14, written by Peter Selinger 2001-2017
</metadata>
<g transform="translate(0.000000,1024.000000) scale(0.100000,-0.100000)"
fill="#000000" stroke="none">
<path d="M2923 7916 c-41 -13 -82 -55 -88 -90 -4 -17 -8 -719 -10 -1561 -3
-841 -6 -1649 -7 -1795 -3 -242 2 -341 17 -410 4 -14 9 -38 12 -55 3 -16 9
-38 15 -48 5 -10 7 -21 5 -24 -5 -4 24 -76 56 -143 14 -29 75 -128 91 -148
140 -169 353 -279 619 -317 27 -3 59 -9 70 -12 12 -3 402 -6 867 -8 465 -1
848 -3 851 -4 7 -1 18 -11 164 -146 55 -51 131 -121 169 -156 38 -35 86 -80
106 -99 20 -19 81 -75 135 -125 53 -49 121 -112 150 -140 42 -40 168 -156 239
-220 32 -29 86 -65 98 -65 8 0 18 -4 24 -9 19 -19 110 -24 464 -25 407 -2 407
-2 444 65 29 53 16 99 -44 160 -26 27 -50 49 -53 49 -3 0 -20 15 -39 32 -18
18 -54 50 -80 71 -26 21 -49 46 -52 55 -9 30 -16 76 -21 132 -3 30 -7 61 -10
70 -2 8 -7 40 -10 70 -3 30 -11 87 -16 125 -6 39 -13 90 -16 115 -3 25 -11 83
-18 130 l-12 85 26 19 c86 64 253 271 234 290 -4 3 -1 6 5 6 7 0 12 4 12 9 0
5 5 22 12 38 6 15 12 33 14 38 1 6 9 29 18 53 8 23 13 42 11 42 -3 0 0 11 5
26 6 14 12 42 15 62 3 20 7 48 10 62 13 72 16 283 19 1630 3 896 1 1490 -5
1530 -12 81 -17 111 -22 130 -2 8 -7 29 -11 45 -27 106 -124 248 -221 322 -36
28 -140 81 -169 88 -6 1 -18 5 -26 8 -8 3 -34 11 -58 17 -41 10 -64 14 -157
27 -71 9 -3804 8 -3832 -1z m1622 -719 c93 -22 125 -57 141 -152 4 -22 7 -461
8 -975 1 -894 2 -936 20 -966 10 -17 27 -36 37 -42 29 -19 119 -28 214 -22 11
1 93 0 183 -2 89 -2 162 1 162 5 0 4 8 4 17 -2 11 -6 24 -6 35 0 9 5 19 5 22
0 3 -4 24 -5 46 -1 22 4 40 5 40 1 0 -3 4 -1 8 4 4 6 16 15 27 21 11 6 29 28
39 49 19 37 19 73 21 924 2 814 3 890 19 941 17 53 53 110 86 138 26 22 133
70 175 79 51 10 519 10 564 0 80 -18 113 -50 131 -125 17 -73 14 -2357 -4
-2650 -6 -100 -12 -129 -34 -185 -7 -16 -12 -31 -12 -35 0 -14 -72 -82 -86
-82 -8 0 -14 -4 -14 -10 0 -8 -26 -18 -110 -41 -19 -5 -75 -12 -125 -16 -120
-9 -1956 -9 -2065 0 -267 21 -364 108 -385 341 -8 92 -9 2459 -1 2511 11 72
14 82 36 125 43 84 125 141 239 165 60 13 511 14 566 2z"/>
</g>
</svg>
