<?xml version="1.0" encoding="utf-8"?>
<!-- Generator: Adobe Adobe Illustrator 24.2.0, SVG Export Plug-In . SVG Version: 6.00 Build 0)  -->
<svg version="1.1" xmlns="http://www.w3.org/2000/svg" xmlns:xlink="http://www.w3.org/1999/xlink" x="0px" y="0px"
	 viewBox="175 120 320 240" style="enable-background:new 175 120 320 240;" xml:space="preserve">
<style type="text/css">
	.st0{fill:url(#SVGID_1_);stroke:#000000;stroke-width:3;stroke-miterlimit:10;}
	.st1{fill:url(#SVGID_2_);stroke:#000000;stroke-width:3;stroke-miterlimit:10;}
	.st2{fill:url(#SVGID_3_);stroke:#000000;stroke-width:0.25;stroke-miterlimit:10;}
	.st3{fill:url(#SVGID_4_);stroke:#000000;stroke-width:0.25;stroke-miterlimit:10;}
	.st4{fill:url(#SVGID_5_);stroke:#000000;stroke-width:8;stroke-miterlimit:10;}
	.st5{fill:url(#SVGID_6_);stroke:#000000;stroke-width:8;stroke-miterlimit:10;}
	.st6{fill:url(#SVGID_7_);stroke:#000000;stroke-width:11;stroke-miterlimit:10;}
	.st7{fill:url(#SVGID_8_);stroke:#000000;stroke-width:11;stroke-miterlimit:10;}
</style>
<g id="Small">
	<g>
		<g>
			<linearGradient id="SVGID_1_" gradientUnits="userSpaceOnUse" x1="449.9191" y1="333.5291" x2="254.1169" y2="206.4983">
				<stop  offset="0" style="stop-color:#ADFFDE"/>
				<stop  offset="0.2666" style="stop-color:#ADFAE2"/>
				<stop  offset="0.5938" style="stop-color:#ADEBEC"/>
				<stop  offset="0.9514" style="stop-color:#ADD2FC"/>
				<stop  offset="1" style="stop-color:#ADCEFF"/>
			</linearGradient>
			<path class="st0" d="M286.49,235.68c0,2.41-1.94,4.32-4.78,4.32h-20.73c-2.63,0-4.25-1.41-4.25-3.82l-0.64,30.9
				c0,26.05,13.15,38.24,40.16,38.24h57.35l36.33,33.7c2.87,2.63,5.26,3.58,10.28,3.58h23.66c3.35,0,4.3-3.58,1.67-5.73l-9.19-8.09
				l-3.91-29.26c9.63-6.02,14.3-16.76,14.3-32.44l-0.04-30.9c0,2.41-1.41,3.82-4.25,3.82h-21.46c-2.63,0-4.25-1.41-4.25-3.82
				l-0.12,24.21c0,16.49-4.06,20.07-23.9,20.07h-62.61c-19.84,0-23.61-4.08-23.61-20.57l0.12-12.2L286.49,235.68z"/>
			<linearGradient id="SVGID_2_" gradientUnits="userSpaceOnUse" x1="304.7608" y1="149.3516" x2="383.6378" y2="243.7289">
				<stop  offset="0" style="stop-color:#ADFFDE"/>
				<stop  offset="1" style="stop-color:#ADCEFF"/>
			</linearGradient>
			<path class="st1" d="M426.99,163.04v73.14c0,2.41-1.41,3.82-4.25,3.82h-21.46c-2.63,0-4.25-1.41-4.25-3.82v-65.51
				c0-10.45-2.02-12.46-14.58-12.46h-7.08c-13.36,0-18.63,5.43-18.63,16.48v61.49c0,2.41-1.41,3.82-4.05,3.82h-21.45
				c-2.84,0-4.26-1.41-4.26-3.82v-65.51c0-10.45-2.02-12.46-14.77-12.46h-7.09c-13.36,0-18.63,5.43-18.63,16.48v61.49
				c0,0.61-0.07,1.15-0.23,1.62c-0.48,1.41-1.69,2.2-3.81,2.2h-21.46c-2.84,0-4.26-1.41-4.26-3.82v-98.06
				c0-2.41,1.42-3.82,4.26-3.82h135.63C417.68,134.3,426.99,143.14,426.99,163.04z"/>
		</g>
	</g>
</g>
<g id="XSmall">
</g>
<g id="Medium">
</g>
<g id="Large">
</g>
</svg>
