<svg xmlns="http://www.w3.org/2000/svg" xmlns:xlink="http://www.w3.org/1999/xlink" version="1.1" width="1000" height="1000" viewBox="0 0 1000 1000" xml:space="preserve">
<desc>Created with Fabric.js 3.5.0</desc>
<defs>
</defs>
<rect x="0" y="0" width="100%" height="100%" fill="#ffffff"/>
<g transform="matrix(2.5868 0 0 2.5868 454.0989 524.0827)" id="898469">
<g style="" vector-effect="non-scaling-stroke">
		<g transform="matrix(1 0 0 1 21.5718 49.14)" id="Small">
<linearGradient id="SVGID_3" gradientUnits="userSpaceOnUse" gradientTransform="matrix(1 0 0 1 0 0)" x1="449.9191" y1="333.5291" x2="254.1169" y2="206.4983">
<stop offset="0%" style="stop-color:rgb(173,255,222);stop-opacity: 1"/>
<stop offset="26.66%" style="stop-color:rgb(173,250,226);stop-opacity: 1"/>
<stop offset="59.38%" style="stop-color:rgb(173,235,236);stop-opacity: 1"/>
<stop offset="95.14%" style="stop-color:rgb(173,210,252);stop-opacity: 1"/>
<stop offset="100%" style="stop-color:rgb(173,206,255);stop-opacity: 1"/>
</linearGradient>
<path style="stroke: rgb(0,0,0); stroke-width: 3; stroke-dasharray: none; stroke-linecap: butt; stroke-dashoffset: 0; stroke-linejoin: miter; stroke-miterlimit: 10; is-custom-font: none; font-file-url: none; fill: url(#SVGID_3); fill-rule: nonzero; opacity: 1;" transform=" translate(-341.5718, -289.14)" d="M 286.49 235.68 c 0 2.41 -1.94 4.32 -4.78 4.32 h -20.73 c -2.63 0 -4.25 -1.41 -4.25 -3.82 l -0.64 30.9 c 0 26.05 13.15 38.24 40.16 38.24 h 57.35 l 36.33 33.7 c 2.87 2.63 5.26 3.58 10.28 3.58 h 23.66 c 3.35 0 4.3 -3.58 1.67 -5.73 l -9.19 -8.09 l -3.91 -29.26 c 9.63 -6.02 14.3 -16.76 14.3 -32.44 l -0.04 -30.9 c 0 2.41 -1.41 3.82 -4.25 3.82 h -21.46 c -2.63 0 -4.25 -1.41 -4.25 -3.82 l -0.12 24.21 c 0 16.49 -4.06 20.07 -23.9 20.07 h -62.61 c -19.84 0 -23.61 -4.08 -23.61 -20.57 l 0.12 -12.2 L 286.49 235.68 z" stroke-linecap="round"/>
</g>
		<g transform="matrix(1 0 0 1 21.86 -52.85)" id="Small">
<linearGradient id="SVGID_4" gradientUnits="userSpaceOnUse" gradientTransform="matrix(1 0 0 1 0 0)" x1="304.7608" y1="149.3516" x2="383.6378" y2="243.7289">
<stop offset="0%" style="stop-color:rgb(173,255,222);stop-opacity: 1"/>
<stop offset="100%" style="stop-color:rgb(173,206,255);stop-opacity: 1"/>
</linearGradient>
<path style="stroke: rgb(0,0,0); stroke-width: 3; stroke-dasharray: none; stroke-linecap: butt; stroke-dashoffset: 0; stroke-linejoin: miter; stroke-miterlimit: 10; is-custom-font: none; font-file-url: none; fill: url(#SVGID_4); fill-rule: nonzero; opacity: 1;" transform=" translate(-341.86, -187.15)" d="M 426.99 163.04 v 73.14 c 0 2.41 -1.41 3.82 -4.25 3.82 h -21.46 c -2.63 0 -4.25 -1.41 -4.25 -3.82 v -65.51 c 0 -10.45 -2.02 -12.46 -14.58 -12.46 h -7.08 c -13.36 0 -18.63 5.43 -18.63 16.48 v 61.49 c 0 2.41 -1.41 3.82 -4.05 3.82 h -21.45 c -2.84 0 -4.26 -1.41 -4.26 -3.82 v -65.51 c 0 -10.45 -2.02 -12.46 -14.77 -12.46 h -7.09 c -13.36 0 -18.63 5.43 -18.63 16.48 v 61.49 c 0 0.61 -0.07 1.15 -0.23 1.62 c -0.48 1.41 -1.69 2.2 -3.81 2.2 h -21.46 c -2.84 0 -4.26 -1.41 -4.26 -3.82 v -98.06 c 0 -2.41 1.42 -3.82 4.26 -3.82 h 135.63 C 417.68 134.3 426.99 143.14 426.99 163.04 z" stroke-linecap="round"/>
</g>
</g>
</g>
</svg>